# xmcd
#
# Track frame offsets:
#	150
#	18868
#	35734
#	51472
#	72327
#
# Disc length: 1205 seconds
#
# Revision: 0
# Processed by: cddbd v1.5.2PL0 Copyright (c) Steve Scherf et al.
# Submitted via: audiograbber 1.83.01
#
DISCID=4204b305
DTITLE=Blind Willy - Willing To Crawl
DYEAR=1900
DGENRE=
TTITLE0=Living The Blues
TTITLE1=Willing To Crawl
TTITLE2=My Little Feelgood
TTITLE3=Leave The Light On
TTITLE4=Sweat
EXTD=
EXTT0=
EXTT1=
EXTT2=
EXTT3=
EXTT4=
PLAYORDER=
